<svg xmlns="http://www.w3.org/2000/svg" width="176" height="113" viewBox="0 0 176 113" fill="none">
    <path d="M131.666 34.6639V0.552679C131.666 0.0265419 131.008 -0.192683 130.657 0.20192L93.3894 46.7651C93.0825 47.1158 93.3456 47.6858 93.8278 47.6858H120.749C121.494 47.6858 122.152 47.3351 122.59 46.7651L131.096 36.1546C131.447 35.76 131.666 35.2339 131.666 34.6639ZM44.5025 36.1985L72.4754 71.1866C72.9139 71.7566 73.6154 72.0635 74.3608 72.0635H101.281C101.764 72.0635 102.027 71.5374 101.72 71.1866L44.9409 0.245767C44.5902 -0.148836 43.9325 0.0703894 43.9325 0.596527V34.7078C43.9763 35.2339 44.1517 35.76 44.5025 36.1985Z" fill="white"/>
    <path d="M156.394 92.539H162.664V111.743C162.664 112.006 162.883 112.181 163.103 112.181H166.698C166.961 112.181 167.136 111.962 167.136 111.743V92.539H175.028C175.248 92.539 175.379 92.2759 175.248 92.1005L172.529 88.7245C172.31 88.4614 171.959 88.286 171.608 88.286H156.35C156.087 88.286 155.912 88.5053 155.912 88.7245V92.1005C155.956 92.3198 156.131 92.539 156.394 92.539ZM4.82293 111.787L23.2377 88.7245C23.3693 88.5491 23.2377 88.286 23.0185 88.286H18.4586C18.1079 88.286 17.7571 88.4614 17.5379 88.7245L4.47217 105.079V88.7245C4.47217 88.4614 4.25294 88.286 4.03372 88.286H0.438448C0.175379 88.286 0 88.5053 0 88.7245V111.787C0 112.05 0.219224 112.225 0.438448 112.225H3.94603C4.25294 112.225 4.6037 112.05 4.82293 111.787ZM17.8448 111.787L24.1585 103.851L30.516 111.787C30.7352 112.05 31.0859 112.225 31.4367 112.225H34.9443C35.2074 112.225 35.3827 112.006 35.3827 111.787V88.7245C35.3827 88.4614 35.1635 88.286 34.9443 88.286H32.0067C31.3052 88.286 30.6037 88.5929 30.1652 89.1629L12.1012 111.787C11.9696 111.962 12.1012 112.225 12.3204 112.225H16.8802C17.2748 112.225 17.5818 112.05 17.8448 111.787ZM30.9106 94.9504V105.561L26.6576 100.256L30.9106 94.9504ZM133.727 111.787L115.312 88.7245C115.093 88.4614 114.742 88.286 114.391 88.286H110.883C110.62 88.286 110.445 88.5053 110.445 88.7245V111.787C110.445 112.05 110.664 112.225 110.883 112.225H114.391C114.742 112.225 115.093 112.05 115.312 111.787L121.669 103.851L127.983 111.787C128.202 112.05 128.553 112.225 128.904 112.225H133.507C133.77 112.225 133.902 111.962 133.727 111.787ZM119.17 100.256L114.917 105.561V94.9504L119.17 100.256ZM68.4855 87.6722C61.5581 87.6722 55.9021 93.2843 55.9021 100.256C55.9021 107.183 61.5142 112.839 68.4855 112.839C75.413 112.839 81.069 107.227 81.069 100.256C81.069 93.2843 75.413 87.6722 68.4855 87.6722ZM68.4855 108.542C64.0134 108.542 60.4181 104.816 60.4181 100.256C60.4181 95.652 64.0134 91.969 68.4855 91.969C72.9577 91.969 76.553 95.6958 76.553 100.256C76.553 104.816 72.9577 108.542 68.4855 108.542ZM148.327 88.7245V105.079L135.261 88.7245C135.042 88.4614 134.691 88.286 134.34 88.286H130.833C130.57 88.286 130.394 88.5053 130.394 88.7245V99.8172C130.394 100.08 130.482 100.343 130.657 100.563L134.384 105.254C134.56 105.473 134.867 105.342 134.867 105.079V95.4327L147.932 111.787C148.151 112.05 148.502 112.225 148.853 112.225H152.361C152.624 112.225 152.799 112.006 152.799 111.787V88.7245C152.799 88.4614 152.58 88.286 152.361 88.286H148.765C148.546 88.286 148.327 88.4614 148.327 88.7245ZM104.394 93.7228V88.7245C104.394 88.4614 104.175 88.286 103.956 88.286H85.5412C85.2781 88.286 85.1027 88.5053 85.1027 88.7245V111.787C85.1027 112.05 85.3219 112.225 85.5412 112.225H89.1364C89.3995 112.225 89.5749 112.006 89.5749 111.787V92.5828H99.8784L92.9071 101.308C92.7755 101.483 92.7755 101.703 92.9071 101.878L100.843 111.831C101.062 112.094 101.413 112.269 101.764 112.269H106.367C106.587 112.269 106.718 112.006 106.587 111.831L98.4754 101.527L104.131 94.4243C104.307 94.2489 104.394 93.9859 104.394 93.7228ZM41.2579 112.225H51.9122C52.263 112.225 52.6137 112.05 52.833 111.787L55.5075 108.411C55.639 108.235 55.5075 107.972 55.2883 107.972H45.2917V88.7683C45.2917 88.5053 45.0724 88.3299 44.8532 88.3299H41.2579C40.9949 88.3299 40.8195 88.5491 40.8195 88.7683V111.831C40.8195 112.006 40.9949 112.225 41.2579 112.225Z" fill="white"/>
</svg>