<svg id="visual" viewBox="0 0 900 600" width="900" height="600" xmlns="http://www.w3.org/2000/svg" xmlns:xlink="http://www.w3.org/1999/xlink" version="1.1"><path d="M0 191L15 192.8C30 194.7 60 198.3 90 197.7C120 197 150 192 180 168.5C210 145 240 103 270 100.3C300 97.7 330 134.3 360 156.3C390 178.3 420 185.7 450 185.7C480 185.7 510 178.3 540 178.3C570 178.3 600 185.7 630 195.7C660 205.7 690 218.3 720 206C750 193.7 780 156.3 810 141.5C840 126.7 870 134.3 885 138.2L900 142L900 0L885 0C870 0 840 0 810 0C780 0 750 0 720 0C690 0 660 0 630 0C600 0 570 0 540 0C510 0 480 0 450 0C420 0 390 0 360 0C330 0 300 0 270 0C240 0 210 0 180 0C150 0 120 0 90 0C60 0 30 0 15 0L0 0Z" fill="#000000" stroke-linecap="round" stroke-linejoin="miter"></path></svg>